<svg xmlns="http://www.w3.org/2000/svg" xmlns:xlink="http://www.w3.org/1999/xlink" version="1.1" data-diagram-type="DESCRIPTION" style="width:1362px;height:441px;background:#1B1B1B;" width="1362px" height="441px" viewBox="0 0 1362 441" zoomAndPan="magnify" preserveAspectRatio="none" contentStyleType="text/css"><?plantuml 1.2026.8beta1?><defs><style type="text/css"><![CDATA[/* Source (unminified): https://github.com/plantuml/plantuml/blob/master/src/main/resources/svg/default.css */
svg .entity{cursor:pointer}svg.mouseover-active>g>*{opacity:0.2 !important}svg.mouseover-active>g>g.mouseover-highlighted{opacity:1.0 !important}svg.click-active>g>*{opacity:0.3}svg.click-active>g>g.click-highlighted{opacity:1.0}
]]></style><script>/* Source (unminified): https://github.com/plantuml/plantuml/blob/master/src/main/resources/svg/default.js */
!function(){function e(e){return e?.replaceAll("\\","\\\\")?.replaceAll('"','\\"')}function t(){a.classList.contains("click-active")&amp;&amp;this.classList.contains("click-selected")?d("click"):s(this,"click")}function c(){var t,c;a.classList.contains("click-active")&amp;&amp;this.classList.contains("click-selected")?d("click"):(t=this,c="click",a.querySelectorAll(`.${c}-selected, .${c}-highlighted`).forEach(e=>{e.classList.remove(`${c}-selected`,`${c}-highlighted`)}),a.classList.add(`${c}-active`),t.classList.add(`${c}-selected`,`${c}-highlighted`),function(t){function c(t,i,n=new Set){n.add(t);const s=e(t.id),d=i?2:1,l=i?1:2;return a.querySelectorAll(`.link[data-entity-${l}="${s}"]`).forEach(t=>{if(!n.has(t)){n.add(t);const s=t.getAttribute(`data-entity-${d}`),l=a.querySelector(`[id="${e(s)}"]`);n.has(l)||(n.add(l),c(l,i,n))}}),n}const i=c(t,!1),n=c(t,!0);return i.union(n)}(t).forEach(e=>{e.classList.add(`${c}-highlighted`)}))}function i(){s(this,"mouseover")}function n(){d("mouseover")}function s(t,c){a.querySelectorAll(`.${c}-selected, .${c}-highlighted`).forEach(e=>{e.classList.remove(`${c}-selected`,`${c}-highlighted`)}),a.classList.add(`${c}-active`),t.classList.add(`${c}-selected`,`${c}-highlighted`),function(t){const c=t.id,i=e(c);let n=new Set;return a.querySelectorAll(`.link[data-entity-1="${i}"], .link[data-entity-2="${i}"]`).forEach(t=>{const i=t.getAttribute("data-entity-1"),s=t.getAttribute("data-entity-2");i===c?(n.add(a.querySelector(`[id="${e(s)}"]`)),n.add(t)):s===c&amp;&amp;(n.add(a.querySelector(`[id="${e(i)}"]`)),n.add(t))}),n}(t).forEach(e=>{e.classList.add(`${c}-highlighted`)})}function d(e){a.classList.remove(`${e}-active`)}const a=function(e,t){for(;e&amp;&amp;e.nodeName.toLowerCase()!==t;)e=e.parentElement;return e}(document.currentScript,"svg");document.addEventListener("DOMContentLoaded",()=>{a.querySelectorAll("g.entity").forEach(e=>{e.addEventListener("mouseover",i),e.addEventListener("mouseout",n),e.addEventListener("click",t),e.addEventListener("dblclick",c)}),a.addEventListener("keydown",e=>{"Escape"===e.code&amp;&amp;d("click")})})}();
</script></defs><g font-family="sans-serif" lengthAdjust="spacing"><rect x="0" y="0" width="1362" height="441" fill="#1B1B1B" style="stroke:none;"/><g class="title" data-source-line="2"><text x="472.914" y="22.995" fill="#FFF" font-size="14" textLength="410.156" font-weight="700">Payment &amp; Transfer Architecture — System Context</text></g><!--cluster Transfer--><g class="cluster" data-qualified-name="Transfer" id="ent0002" data-source-line="6"><rect x="7" y="190.097" width="567" height="237.59" fill="none" style="stroke:#E7E7E7;stroke-width:1;" rx="2.5" ry="2.5"/><text x="225.617" y="205.092" fill="#FFF" font-size="14" textLength="129.767" font-weight="700">Transfer Service</text></g><!--cluster Banking Systems--><g class="cluster" data-qualified-name="Banking Systems" id="ent0006" data-source-line="11"><rect x="631" y="332.387" width="188" height="87.3" fill="none" style="stroke:#E7E7E7;stroke-width:1;" rx="2.5" ry="2.5"/><text x="657.146" y="347.382" fill="#FFF" font-size="14" textLength="135.707" font-weight="700">Banking Systems</text></g><!--cluster External Systems--><g class="cluster" data-qualified-name="External Systems" id="ent0008" data-source-line="14"><rect x="868" y="332.387" width="324" height="87.3" fill="none" style="stroke:#E7E7E7;stroke-width:1;" rx="2.5" ry="2.5"/><text x="961.289" y="347.382" fill="#FFF" font-size="14" textLength="137.423" font-weight="700">External Systems</text></g><!--entity API--><g class="entity" data-qualified-name="Transfer.API" id="ent0003" data-source-line="7"><rect x="148.52" y="233.097" width="104.95" height="36.297" fill="#313139" style="stroke:#E7E7E7;stroke-width:0.5;" rx="2.5" ry="2.5"/><text x="158.52" y="256.092" fill="#FFF" font-size="14" textLength="84.95">Transfer API</text></g><!--entity State--><g class="entity" data-qualified-name="Transfer.State" id="ent0004" data-source-line="8"><rect x="246.41" y="367.387" width="131.18" height="36.297" fill="#313139" style="stroke:#E7E7E7;stroke-width:0.5;" rx="2.5" ry="2.5"/><text x="256.41" y="390.382" fill="#FFF" font-size="14" textLength="111.18">Operation State</text></g><!--entity Idem--><g class="entity" data-qualified-name="Transfer.Idem" id="ent0005" data-source-line="9"><rect x="31.16" y="367.387" width="111.677" height="36.297" fill="#313139" style="stroke:#E7E7E7;stroke-width:0.5;" rx="2.5" ry="2.5"/><text x="41.16" y="390.382" fill="#FFF" font-size="14" textLength="91.677">Idempotency</text></g><!--entity ABS--><g class="entity" data-qualified-name="Banking Systems.ABS" id="ent0007" data-source-line="12"><rect x="647.17" y="367.387" width="155.659" height="36.297" fill="#313139" style="stroke:#E7E7E7;stroke-width:0.5;" rx="2.5" ry="2.5"/><text x="657.17" y="390.382" fill="#FFF" font-size="14" textLength="135.659">Core Banking / ABS</text></g><!--entity Network--><g class="entity" data-qualified-name="External Systems.Network" id="ent0009" data-source-line="15"><rect x="1031.59" y="367.387" width="144.824" height="36.297" fill="#313139" style="stroke:#E7E7E7;stroke-width:0.5;" rx="2.5" ry="2.5"/><text x="1041.59" y="390.382" fill="#FFF" font-size="14" textLength="124.824">Payment Network</text></g><!--entity Audit--><g class="entity" data-qualified-name="External Systems.Audit" id="ent0010" data-source-line="16"><rect x="883.55" y="367.387" width="112.907" height="36.297" fill="#313139" style="stroke:#E7E7E7;stroke-width:0.5;" rx="2.5" ry="2.5"/><text x="893.55" y="390.382" fill="#FFF" font-size="14" textLength="92.907">Audit Service</text></g><!--entity Client--><g class="entity" data-qualified-name="Client" id="ent0001" data-source-line="5"><ellipse cx="201.002" cy="51.297" rx="8" ry="8" fill="#313139" style="stroke:#E7E7E7;stroke-width:0.5;"/><path d="M201.002,59.297 L201.002,86.297 M188.002,67.297 L214.002,67.297 M201.002,86.297 L188.002,101.297 M201.002,86.297 L214.002,101.297" style="stroke:#E7E7E7;stroke-width:0.5;" fill="none"/><text x="139.4" y="115.792" fill="#FFF" font-size="14" textLength="123.204">Client Application</text></g><!--link Client to API--><g class="link" data-entity-1="ent0001" data-entity-2="ent0003" id="lnk11" data-source-line="18" data-link-type="dependency"><path d="M201,119.297 C201,154.737 201,201.427 201,228.017" style="stroke:#E7E7E7;stroke-width:1;" fill="none" id="Client-to-API"/><polygon points="201,233.017,205,224.017,201,228.017,197,224.017,201,233.017" fill="#E7E7E7" style="stroke:#E7E7E7;stroke-width:1;stroke-linejoin:miter;stroke-miterlimit:10;"/><text x="202" y="162.164" fill="#FFF" font-size="13" textLength="145.844">Create / Get operation</text></g><!--link API to Idem--><g class="link" data-entity-1="ent0003" data-entity-2="ent0005" id="lnk12" data-source-line="19" data-link-type="dependency"><path d="M148.04,261.777 C126.39,268.527 103.34,279.977 90,299.387 C76.26,319.377 77.917,343.803 81.587,362.293" style="stroke:#E7E7E7;stroke-width:1;" fill="none" id="API-to-Idem"/><polygon points="82.56,367.197,84.731,357.59,81.587,362.293,76.884,359.148,82.56,367.197" fill="#E7E7E7" style="stroke:#E7E7E7;stroke-width:1;stroke-linejoin:miter;stroke-miterlimit:10;"/><text x="91" y="312.454" fill="#FFF" font-size="13" textLength="93.825">Check request</text></g><!--link API to State--><g class="link" data-entity-1="ent0003" data-entity-2="ent0004" id="lnk13" data-source-line="20" data-link-type="dependency"><path d="M195.37,269.757 C192.07,283.357 189.97,302.227 198,316.387 C211.37,339.957 231.94,354.152 255.2,364.882" style="stroke:#E7E7E7;stroke-width:1;" fill="none" id="API-to-State"/><polygon points="259.74,366.977,253.243,359.575,255.2,364.882,249.892,366.839,259.74,366.977" fill="#E7E7E7" style="stroke:#E7E7E7;stroke-width:1;stroke-linejoin:miter;stroke-miterlimit:10;"/><text x="199" y="312.454" fill="#FFF" font-size="13" textLength="138.995">Create / update state</text></g><!--link State to API--><g class="link" data-entity-1="ent0004" data-entity-2="ent0003" id="lnk19" data-source-line="26" data-link-type="dependency"><path d="M326.91,367.197 C340.68,348.977 356.93,320.127 342,299.387 C340.6,297.447 298.138,283.433 258.728,270.713" style="stroke:#E7E7E7;stroke-width:1;" fill="none" id="State-to-API"/><polygon points="253.97,269.177,261.306,275.748,258.728,270.713,263.764,268.135,253.97,269.177" fill="#E7E7E7" style="stroke:#E7E7E7;stroke-width:1;stroke-linejoin:miter;stroke-miterlimit:10;"/><text x="349" y="312.454" fill="#FFF" font-size="13" textLength="159.967">Current operation status</text></g><!--link Transfer to ABS--><g class="link" data-entity-1="ent0002" data-entity-2="ent0007" id="lnk14" data-source-line="21" data-link-type="dependency"><path d="M574.055,276.685 C574.096,276.786 574.137,276.887 574.178,276.988 C579.408,289.922 587.25,305.317 598,316.387 C619.79,338.837 645.989,353.603 671.799,364.893" style="stroke:#E7E7E7;stroke-width:1;" fill="none" id="Transfer-to-ABS"/><polygon points="676.38,366.897,669.737,359.625,671.799,364.893,666.531,366.955,676.38,366.897" fill="#E7E7E7" style="stroke:#E7E7E7;stroke-width:1;stroke-linejoin:miter;stroke-miterlimit:10;"/><text x="599" y="312.454" fill="#FFF" font-size="13" textLength="107.859">Execute transfer</text></g><!--link ABS to Transfer--><g class="link" data-entity-1="ent0007" data-entity-2="ent0002" id="lnk15" data-source-line="22" data-link-type="dependency"><path d="M727.06,367.017 C728.27,348.097 727.11,318.137 711,299.387 C689.265,274.087 653.8,262.272 623.385,256.796 C608.178,254.057 594.233,252.904 583.898,252.442 C581.314,252.327 578.956,252.254 576.86,252.211 C576.336,252.2 575.828,252.191 575.338,252.184 C575.092,252.181 574.851,252.177 574.615,252.174 C574.496,252.173 579.379,252.226 579.262,252.224" style="stroke:#E7E7E7;stroke-width:1;" fill="none" id="ABS-to-Transfer"/><polygon points="574.263,252.17,583.219,256.267,579.262,252.224,583.305,248.268,574.263,252.17" fill="#E7E7E7" style="stroke:#E7E7E7;stroke-width:1;stroke-linejoin:miter;stroke-miterlimit:10;"/><text x="722" y="312.454" fill="#FFF" font-size="13" textLength="148.688">Result / timeout / error</text></g><!--link Transfer to Network--><g class="link" data-entity-1="ent0002" data-entity-2="ent0009" id="lnk16" data-source-line="23" data-link-type="dependency"><path d="M574.293,252.184 C579.087,252.158 585.856,252.128 594.331,252.111 C611.28,252.075 635.048,252.087 663.463,252.265 C720.294,252.621 795.716,253.644 872.363,256.293 C1025.655,261.592 1183.845,273.397 1208,299.387 C1232.3,325.547 1195.006,348.878 1157.356,365.008" style="stroke:#E7E7E7;stroke-width:1;" fill="none" id="Transfer-to-Network"/><polygon points="1152.76,366.977,1162.608,367.109,1157.356,365.008,1159.458,359.756,1152.76,366.977" fill="#E7E7E7" style="stroke:#E7E7E7;stroke-width:1;stroke-linejoin:miter;stroke-miterlimit:10;"/><text x="1216" y="312.454" fill="#FFF" font-size="13" textLength="130.984">Payment instruction</text></g><!--link Network to Transfer--><g class="link" data-entity-1="ent0009" data-entity-2="ent0002" id="lnk17" data-source-line="24" data-link-type="dependency"><path d="M1085.82,367.057 C1063.71,346.967 1024.33,314.787 984,299.387 C940.675,282.847 837.463,271.114 744.445,263.491 C697.936,259.679 653.976,256.894 621.325,255.049 C605,254.127 591.502,253.439 581.926,252.976 C579.532,252.86 577.383,252.758 575.496,252.67 C575.025,252.648 579.564,252.858 579.126,252.838" style="stroke:#E7E7E7;stroke-width:1;" fill="none" id="Network-to-Transfer"/><polygon points="574.131,252.607,582.937,257.018,579.126,252.838,583.306,249.027,574.131,252.607" fill="#E7E7E7" style="stroke:#E7E7E7;stroke-width:1;stroke-linejoin:miter;stroke-miterlimit:10;"/><text x="1018" y="312.454" fill="#FFF" font-size="13" textLength="148.688">Result / timeout / error</text></g><!--link Transfer to Audit--><g class="link" data-entity-1="ent0002" data-entity-2="ent0010" id="lnk18" data-source-line="25" data-link-type="dependency"><path d="M574.38,252.633 C574.766,252.652 575.163,252.672 575.572,252.692 C576.391,252.733 577.259,252.777 578.173,252.824 C585.485,253.198 595.784,253.766 608.22,254.556 C633.091,256.136 666.508,258.607 701.664,262.212 C771.975,269.422 849.24,281.167 879,299.387 C905.06,315.337 921.046,342.505 930.436,362.405" style="stroke:#E7E7E7;stroke-width:1;" fill="none" id="Transfer-to-Audit"/><polygon points="932.57,366.927,932.347,357.081,930.436,362.405,925.112,360.494,932.57,366.927" fill="#E7E7E7" style="stroke:#E7E7E7;stroke-width:1;stroke-linejoin:miter;stroke-miterlimit:10;"/><text x="900" y="312.454" fill="#FFF" font-size="13" textLength="75.251">Audit event</text></g><?plantuml-src dLB1JiCm3BttAymEt2RkEo1rquIum4JvWIZpjgXjKXodMuMG-0Y-a2_1ITUg6n87Uebhlpm_F-Uc8RMl5VXsRomZASscHM0AcB7X2c6ZkXejmosyah9-XmGvwODXr1m8uVlp2uhECzQmSa9nuioNnZQAL0tQrOspShtWJhX8xYYxht02yGUrTKTZzx1JbSTC53Y2sQeoiMlUD9NHYespCr0U-dGs4i5iL5KWjKPZWet9zmpa6sLCuFdcCK7blCOyDs94R0a5A-uPKtGDVDoYn8nMTmaK_xEFgRgbicMShNV8ptuBMZanSO3TGRuiUbdBuf9fVPBrM5NzGJMiwWdvwAXCFEVu6fg7hU4Bor96MfwDdy_lepMmW1MXZ2xI7f313TPaiHX1SUQ8Eg0kPS5l0JsFnUJQb2CqsnZuvEQuYzHiMGXmVK8TE3x0lfJ5T2oFs0Mye0yL2ncR6bs84H8vkkGx3oxumHPZlRnhdTGFrNzHz-OjpYUsyKNsaqvS2qInwMXOcZdu7m00?></g></svg>