<svg xmlns="http://www.w3.org/2000/svg" xmlns:xlink="http://www.w3.org/1999/xlink" version="1.1" data-diagram-type="SEQUENCE" style="width:889px;height:871px;background:#1B1B1B;" width="889px" height="871px" viewBox="0 0 889 871" zoomAndPan="magnify" preserveAspectRatio="none" contentStyleType="text/css"><?plantuml 1.2026.8beta1?><defs/><g font-family="sans-serif" lengthAdjust="spacing"><rect x="0" y="0" width="889" height="871" fill="#1B1B1B" style="stroke:none;"/><g class="title" data-source-line="1"><text x="267.585" y="27.995" fill="#FFF" font-size="14" textLength="352.81" font-weight="700">Payment &amp; Transfer — Main Processing Flow</text></g><rect x="17.265" y="208.992" width="824.261" height="551.672" fill="none" style="stroke:#FFF;stroke-width:1.5;"/><rect x="203.308" y="448.859" width="351.111" height="239.539" fill="none" style="stroke:#FFF;stroke-width:1.5;"/><g><title>Client</title><rect x="29.765" y="123.594" width="8" height="661.07" fill="#000" fill-opacity="0"/><line x1="33.265" y1="123.594" x2="33.265" y2="784.664" style="stroke:#E7E7E7;stroke-width:0.5;stroke-dasharray:5,5;"/></g><g><title>Transfer Service</title><rect x="215.808" y="123.594" width="8" height="661.07" fill="#000" fill-opacity="0"/><line x1="219.308" y1="123.594" x2="219.308" y2="784.664" style="stroke:#E7E7E7;stroke-width:0.5;stroke-dasharray:5,5;"/></g><g><title>Operations DB</title><rect x="396.189" y="123.594" width="8" height="661.07" fill="#000" fill-opacity="0"/><line x1="399.689" y1="123.594" x2="399.689" y2="784.664" style="stroke:#E7E7E7;stroke-width:0.5;stroke-dasharray:5,5;"/></g><g><title>Core Banking . ABS</title><rect x="534.919" y="123.594" width="8" height="661.07" fill="#000" fill-opacity="0"/><line x1="538.419" y1="123.594" x2="538.419" y2="784.664" style="stroke:#E7E7E7;stroke-width:0.5;stroke-dasharray:5,5;"/></g><g><title>Payment Network</title><rect x="689.161" y="123.594" width="8" height="661.07" fill="#000" fill-opacity="0"/><line x1="692.661" y1="123.594" x2="692.661" y2="784.664" style="stroke:#E7E7E7;stroke-width:0.5;stroke-dasharray:5,5;"/></g><g><title>Audit Service</title><rect x="822.026" y="123.594" width="8" height="661.07" fill="#000" fill-opacity="0"/><line x1="825.526" y1="123.594" x2="825.526" y2="784.664" style="stroke:#E7E7E7;stroke-width:0.5;stroke-dasharray:5,5;"/></g><text x="10" y="120.292" fill="#FFF" font-size="14" textLength="40.53">Client</text><ellipse cx="33.265" cy="55.797" rx="8" ry="8" fill="#222" style="stroke:#E7E7E7;stroke-width:0.5;"/><path d="M33.265,63.797 L33.265,90.797 M20.265,71.797 L46.265,71.797 M33.265,90.797 L20.265,105.797 M33.265,90.797 L46.265,105.797" style="stroke:#E7E7E7;stroke-width:0.5;" fill="none"/><rect x="155.037" y="92.297" width="128.543" height="30.297" fill="#222" style="stroke:#E7E7E7;stroke-width:0.5;" rx="2.5" ry="2.5"/><text x="162.037" y="112.292" fill="#FFF" font-size="14" textLength="114.543">Transfer Service</text><text x="345.789" y="120.292" fill="#FFF" font-size="14" textLength="101.801">Operations DB</text><path d="M381.689,71.297 C381.689,61.297 399.689,61.297 399.689,61.297 C399.689,61.297 417.689,61.297 417.689,71.297 L417.689,97.297 C417.689,107.297 399.689,107.297 399.689,107.297 C399.689,107.297 381.689,107.297 381.689,97.297 L381.689,71.297" style="stroke:#E7E7E7;stroke-width:0.5;" fill="#222"/><path d="M381.689,71.297 C381.689,81.297 399.689,81.297 399.689,81.297 C399.689,81.297 417.689,81.297 417.689,71.297" style="stroke:#E7E7E7;stroke-width:0.5;" fill="none"/><rect x="463.589" y="92.297" width="149.659" height="30.297" fill="#222" style="stroke:#E7E7E7;stroke-width:0.5;" rx="2.5" ry="2.5"/><text x="470.589" y="112.292" fill="#FFF" font-size="14" textLength="135.659">Core Banking / ABS</text><rect x="623.249" y="92.297" width="138.824" height="30.297" fill="#222" style="stroke:#E7E7E7;stroke-width:0.5;" rx="2.5" ry="2.5"/><text x="630.249" y="112.292" fill="#FFF" font-size="14" textLength="124.824">Payment Network</text><rect x="772.073" y="92.297" width="106.907" height="30.297" fill="#222" style="stroke:#E7E7E7;stroke-width:0.5;" rx="2.5" ry="2.5"/><text x="779.073" y="112.292" fill="#FFF" font-size="14" textLength="92.907">Audit Service</text><text x="10" y="797.659" fill="#FFF" font-size="14" textLength="40.53">Client</text><ellipse cx="33.265" cy="809.461" rx="8" ry="8" fill="#222" style="stroke:#E7E7E7;stroke-width:0.5;"/><path d="M33.265,817.461 L33.265,844.461 M20.265,825.461 L46.265,825.461 M33.265,844.461 L20.265,859.461 M33.265,844.461 L46.265,859.461" style="stroke:#E7E7E7;stroke-width:0.5;" fill="none"/><rect x="155.037" y="784.664" width="128.543" height="30.297" fill="#222" style="stroke:#E7E7E7;stroke-width:0.5;" rx="2.5" ry="2.5"/><text x="162.037" y="804.659" fill="#FFF" font-size="14" textLength="114.543">Transfer Service</text><text x="345.789" y="797.659" fill="#FFF" font-size="14" textLength="101.801">Operations DB</text><path d="M381.689,810.961 C381.689,800.961 399.689,800.961 399.689,800.961 C399.689,800.961 417.689,800.961 417.689,810.961 L417.689,836.961 C417.689,846.961 399.689,846.961 399.689,846.961 C399.689,846.961 381.689,846.961 381.689,836.961 L381.689,810.961" style="stroke:#E7E7E7;stroke-width:0.5;" fill="#222"/><path d="M381.689,810.961 C381.689,820.961 399.689,820.961 399.689,820.961 C399.689,820.961 417.689,820.961 417.689,810.961" style="stroke:#E7E7E7;stroke-width:0.5;" fill="none"/><rect x="463.589" y="784.664" width="149.659" height="30.297" fill="#222" style="stroke:#E7E7E7;stroke-width:0.5;" rx="2.5" ry="2.5"/><text x="470.589" y="804.659" fill="#FFF" font-size="14" textLength="135.659">Core Banking / ABS</text><rect x="623.249" y="784.664" width="138.824" height="30.297" fill="#222" style="stroke:#E7E7E7;stroke-width:0.5;" rx="2.5" ry="2.5"/><text x="630.249" y="804.659" fill="#FFF" font-size="14" textLength="124.824">Payment Network</text><rect x="772.073" y="784.664" width="106.907" height="30.297" fill="#222" style="stroke:#E7E7E7;stroke-width:0.5;" rx="2.5" ry="2.5"/><text x="779.073" y="804.659" fill="#FFF" font-size="14" textLength="92.907">Audit Service</text><polygon points="207.308,163.859,217.308,167.859,207.308,171.859,211.308,167.859" fill="#E7E7E7" style="stroke:#E7E7E7;stroke-width:1;stroke-linejoin:miter;stroke-miterlimit:10;"/><line x1="33.265" y1="167.859" x2="213.308" y2="167.859" style="stroke:#E7E7E7;stroke-width:1;"/><text x="40.265" y="147.661" fill="#FFF" font-size="13" textLength="98.954">Create transfer</text><text x="40.265" y="162.793" fill="#FFF" font-size="13" textLength="71.932">(requestId)</text><polygon points="387.689,192.992,397.689,196.992,387.689,200.992,391.689,196.992" fill="#E7E7E7" style="stroke:#E7E7E7;stroke-width:1;stroke-linejoin:miter;stroke-miterlimit:10;"/><line x1="219.308" y1="196.992" x2="393.689" y2="196.992" style="stroke:#E7E7E7;stroke-width:1;"/><text x="226.308" y="191.926" fill="#FFF" font-size="13" textLength="156.381">Check idempotency key</text><path d="M17.265,208.992 L81.708,208.992 L81.708,216.125 L71.708,226.125 L17.265,226.125 L17.265,208.992" style="stroke:#FFF;stroke-width:1.5;" fill="#555"/><rect x="17.265" y="208.992" width="824.261" height="551.672" fill="none" style="stroke:#FFF;stroke-width:1.5;"/><text x="32.265" y="222.059" fill="#FFF" font-size="13" textLength="19.443" font-weight="700">alt</text><text x="96.708" y="221.203" fill="#FFF" font-size="11" textLength="178.428" font-weight="700">[Request already processed]</text><polygon points="230.308,253.258,220.308,257.258,230.308,261.258,226.308,257.258" fill="#E7E7E7" style="stroke:#E7E7E7;stroke-width:1;stroke-linejoin:miter;stroke-miterlimit:10;"/><line x1="224.308" y1="257.258" x2="398.689" y2="257.258" style="stroke:#E7E7E7;stroke-width:1;stroke-dasharray:2,2;"/><text x="236.308" y="252.192" fill="#FFF" font-size="13" textLength="118.041">Existing operation</text><polygon points="44.265,282.391,34.265,286.391,44.265,290.391,40.265,286.391" fill="#E7E7E7" style="stroke:#E7E7E7;stroke-width:1;stroke-linejoin:miter;stroke-miterlimit:10;"/><line x1="38.265" y1="286.391" x2="218.308" y2="286.391" style="stroke:#E7E7E7;stroke-width:1;stroke-dasharray:2,2;"/><text x="50.265" y="281.325" fill="#FFF" font-size="13" textLength="162.043">Return current operation</text><line x1="17.265" y1="295.391" x2="841.526" y2="295.391" style="stroke:#FFF;stroke-width:1;stroke-dasharray:2,2;"/><text x="22.265" y="307.601" fill="#FFF" font-size="11" textLength="88.569" font-weight="700">[New request]</text><polygon points="387.689,345.461,397.689,349.461,387.689,353.461,391.689,349.461" fill="#E7E7E7" style="stroke:#E7E7E7;stroke-width:1;stroke-linejoin:miter;stroke-miterlimit:10;"/><line x1="219.308" y1="349.461" x2="393.689" y2="349.461" style="stroke:#E7E7E7;stroke-width:1;"/><text x="226.308" y="329.262" fill="#FFF" font-size="13" textLength="110.03">Create operation</text><text x="226.308" y="344.395" fill="#FFF" font-size="13" textLength="89.896">status = NEW</text><polygon points="230.308,374.594,220.308,378.594,230.308,382.594,226.308,378.594" fill="#E7E7E7" style="stroke:#E7E7E7;stroke-width:1;stroke-linejoin:miter;stroke-miterlimit:10;"/><line x1="224.308" y1="378.594" x2="398.689" y2="378.594" style="stroke:#E7E7E7;stroke-width:1;stroke-dasharray:2,2;"/><text x="236.308" y="373.528" fill="#FFF" font-size="13" textLength="118.631">Operation created</text><polygon points="387.689,403.727,397.689,407.727,387.689,411.727,391.689,407.727" fill="#E7E7E7" style="stroke:#E7E7E7;stroke-width:1;stroke-linejoin:miter;stroke-miterlimit:10;"/><line x1="219.308" y1="407.727" x2="393.689" y2="407.727" style="stroke:#E7E7E7;stroke-width:1;"/><text x="226.308" y="402.661" fill="#FFF" font-size="13" textLength="143.635">status = PROCESSING</text><polygon points="526.419,432.859,536.419,436.859,526.419,440.859,530.419,436.859" fill="#E7E7E7" style="stroke:#E7E7E7;stroke-width:1;stroke-linejoin:miter;stroke-miterlimit:10;"/><line x1="219.308" y1="436.859" x2="532.419" y2="436.859" style="stroke:#E7E7E7;stroke-width:1;"/><text x="226.308" y="431.793" fill="#FFF" font-size="13" textLength="107.859">Execute transfer</text><path d="M203.308,448.859 L267.751,448.859 L267.751,455.992 L257.751,465.992 L203.308,465.992 L203.308,448.859" style="stroke:#FFF;stroke-width:1.5;" fill="#555"/><rect x="203.308" y="448.859" width="351.111" height="239.539" fill="none" style="stroke:#FFF;stroke-width:1.5;"/><text x="218.308" y="461.926" fill="#FFF" font-size="13" textLength="19.443" font-weight="700">alt</text><text x="282.751" y="461.07" fill="#FFF" font-size="11" textLength="144.407" font-weight="700">[ABS confirms success]</text><polygon points="230.308,493.125,220.308,497.125,230.308,501.125,226.308,497.125" fill="#E7E7E7" style="stroke:#E7E7E7;stroke-width:1;stroke-linejoin:miter;stroke-miterlimit:10;"/><line x1="224.308" y1="497.125" x2="537.419" y2="497.125" style="stroke:#E7E7E7;stroke-width:1;stroke-dasharray:2,2;"/><text x="236.308" y="492.059" fill="#FFF" font-size="13" textLength="60.639">SUCCESS</text><polygon points="387.689,522.258,397.689,526.258,387.689,530.258,391.689,526.258" fill="#E7E7E7" style="stroke:#E7E7E7;stroke-width:1;stroke-linejoin:miter;stroke-miterlimit:10;"/><line x1="219.308" y1="526.258" x2="393.689" y2="526.258" style="stroke:#E7E7E7;stroke-width:1;"/><text x="226.308" y="521.192" fill="#FFF" font-size="13" textLength="139.09">status = COMPLETED</text><line x1="203.308" y1="535.258" x2="554.419" y2="535.258" style="stroke:#FFF;stroke-width:1;stroke-dasharray:2,2;"/><text x="208.308" y="547.468" fill="#FFF" font-size="11" textLength="187.016" font-weight="700">[ABS returns business failure]</text><polygon points="230.308,570.195,220.308,574.195,230.308,578.195,226.308,574.195" fill="#E7E7E7" style="stroke:#E7E7E7;stroke-width:1;stroke-linejoin:miter;stroke-miterlimit:10;"/><line x1="224.308" y1="574.195" x2="537.419" y2="574.195" style="stroke:#E7E7E7;stroke-width:1;stroke-dasharray:2,2;"/><text x="236.308" y="569.129" fill="#FFF" font-size="13" textLength="66.327">DECLINED</text><polygon points="387.689,599.328,397.689,603.328,387.689,607.328,391.689,603.328" fill="#E7E7E7" style="stroke:#E7E7E7;stroke-width:1;stroke-linejoin:miter;stroke-miterlimit:10;"/><line x1="219.308" y1="603.328" x2="393.689" y2="603.328" style="stroke:#E7E7E7;stroke-width:1;"/><text x="226.308" y="598.262" fill="#FFF" font-size="13" textLength="104.774">status = FAILED</text><line x1="203.308" y1="612.328" x2="554.419" y2="612.328" style="stroke:#FFF;stroke-width:1;stroke-dasharray:2,2;"/><text x="208.308" y="624.539" fill="#FFF" font-size="11" textLength="169.055" font-weight="700">[Timeout / unknown result]</text><polygon points="230.308,647.266,220.308,651.266,230.308,655.266,226.308,651.266" fill="#E7E7E7" style="stroke:#E7E7E7;stroke-width:1;stroke-linejoin:miter;stroke-miterlimit:10;"/><line x1="224.308" y1="651.266" x2="537.419" y2="651.266" style="stroke:#E7E7E7;stroke-width:1;stroke-dasharray:2,2;"/><text x="236.308" y="646.2" fill="#FFF" font-size="13" textLength="141.838">TIMEOUT / UNKNOWN</text><polygon points="387.689,676.398,397.689,680.398,387.689,684.398,391.689,680.398" fill="#E7E7E7" style="stroke:#E7E7E7;stroke-width:1;stroke-linejoin:miter;stroke-miterlimit:10;"/><line x1="219.308" y1="680.398" x2="393.689" y2="680.398" style="stroke:#E7E7E7;stroke-width:1;"/><text x="226.308" y="675.333" fill="#FFF" font-size="13" textLength="129.403">status = UNKNOWN</text><polygon points="813.526,719.531,823.526,723.531,813.526,727.531,817.526,723.531" fill="#E7E7E7" style="stroke:#E7E7E7;stroke-width:1;stroke-linejoin:miter;stroke-miterlimit:10;"/><line x1="219.308" y1="723.531" x2="819.526" y2="723.531" style="stroke:#E7E7E7;stroke-width:1;"/><text x="226.308" y="718.465" fill="#FFF" font-size="13" textLength="125.023">Publish audit event</text><polygon points="44.265,748.664,34.265,752.664,44.265,756.664,40.265,752.664" fill="#E7E7E7" style="stroke:#E7E7E7;stroke-width:1;stroke-linejoin:miter;stroke-miterlimit:10;"/><line x1="38.265" y1="752.664" x2="218.308" y2="752.664" style="stroke:#E7E7E7;stroke-width:1;stroke-dasharray:2,2;"/><text x="50.265" y="747.598" fill="#FFF" font-size="13" textLength="108.773">Operation status</text><?plantuml-src ZLDBRjim4Dtp50ClYdOHT6-W1InP2OJQaX39o2ORcXetX6HIvIUkTpr4JzYJb1zRhj8wgJQIoFUPUHmQRdg4YXxtA0oyWqPHeNUeuDUFdx2cN42b94EjkVWAjxqy44APaGhIdZi66QWodF61ElPi9DUedZd36L0zAfAM6hgb6c5M3gYeuL9eM2O1j4ocIgbK20aLdRVz28ka3Z3tdkBEXHTe3b9r0NJwdW8NjkLcKbTO8IJs0JUVBwtF8LL83O8vhJoAzmg_MTGcRpyGCW8TQPbu-1Eo3dYB-q4Q5Em87HvTKBs1-yW3sZl9zWX3J1DRGi0zZdupjSw-Ssryr_8SKW1UF1tyLFFSgHkh132hb5-uK0ZsBkW23t0gdBnGELSU6ns9Zq8RQgo6Jr1a3rTA78yFMA2tLyH7gUg-JBEwpekxlv7kI4FNoEmVYKUS3z3lCobsNEqrQCjyUd7NFtxtHNNr9lLc8-HwMMcvhbPPaosZNeZC2wgGgeQjTLFlx617UMyLlcgxpD9LNZYjjtrl5_bgOjhmFKfhtA1RqGbv4Au4RNlpgc6JhxDoqpZIflXIb0_5VpYVaT5Q_EFWuZsPGsMtFTTFGCC_FlkxVdqEBnCHhTpyYVOt?></g></svg>